<svg class="icon" viewBox="0 0 1024 1024" xmlns="http://www.w3.org/2000/svg" width="200" height="200"><defs><style></style></defs><path d="M927.372 389.806c-14.215-30.286-40.119-45.296-73.722-45.694-43.699-.399-162.036-.133-205.733-.133H425.968c11.948-10.492 22.31-19.79 33.072-28.56 41.705-34.002 36.13-97.092-19.93-121.397-32.14-13.952-62.953-7.707-89.65 15.669-48.882 42.769-97.495 85.673-145.978 128.443-4.783 4.115-9.163 6.11-15.677 6.11-29.885-.265-59.77 0-89.654-.265-5.443 0-7.835.934-7.835 7.305.133 142.26.133 284.782 0 427.302 0 5.316 1.332 6.775 6.772 6.775 31.08-.134 62.294 0 93.375-.134 5.58 0 10.493 1.062 15.28 3.587 22.18 12.084 44.359 23.906 66.675 35.858 4.116 2.26 8.237 3.192 13.02 3.192H521.33c8.636 0 16.741-1.331 24.975-3.457 41.174-9.963 56.05-41.44 53.926-71.856-1.063-13.283-5.974-25.106-13.948-35.863 27.502-7.835 49.149-22.183 58.977-49.277 9.962-27.899 2.259-52.468-17.799-72.923 39.454-26.962 48.878-60.969 26.17-103.342h196.7c9.165 0 18.2-.795 27.098-3.585 44.763-13.41 68.402-58.572 49.943-97.755zM186.877 744.849c0 6.376-1.592 7.969-7.836 7.836-16.47-.4-33.203-.266-49.806 0-4.786.133-5.846-1.195-5.846-5.978.132-121.803.132-243.605 0-365.269 0-4.916 1.192-6.374 6.245-6.247 16.865.265 33.734.265 50.603 0 5.448-.127 6.64 1.464 6.64 6.78-.132 60.567-.132 121-.132 181.57 0 60.302-.263 120.87.132 181.308zM900.41 414.91c-1.728 16.468-17.537 32.406-36.135 35.86-5.045.934-10.087 1.199-15.14 1.199-60.17.133-195.372.133-255.547-.137-6.377 0-8.895 1.596-7.835 7.971.131.928 0 1.988 0 3.055 0 6.375-1.723 13.415.398 18.996 2.392 6.11 11.163 3.054 16.738 5.707 6.24 2.928 12.485 5.984 17.53 10.758 19.524 18.332 15.276 47.29-8.632 61.234-10.892 6.245-22.714 7.438-34.802 6.641-5.842-.266-8.763 1.062-7.569 7.439.132 1.197 0 2.661 0 3.856 0 6.37-1.598 13.281.395 18.994 2.527 6.641 11.03 2.792 16.606 5.442 6.907 3.587 13.813 6.64 19.125 12.486 26.302 28.295 1.064 59.906-23.376 64.95-13.678 2.927-27.367.933-41.18 1.597-6.108.266-13.943-2.657-17.53 1.066-3.85 3.713-.793 11.685-1.192 17.665v.795c0 11.955 0 11.69 11.286 14.607 9.831 2.393 18.862 6.907 25.505 14.615 8.635 10.094 13.68 21.784 8.635 35.196-5.846 16.07-17.802 25.768-34.403 29.227-4.383.923-9.034 1.193-13.681 1.327-75.316 0-150.622 0-225.934.132-4.387 0-8.373-.927-12.221-3.189-18.997-11.425-37.99-22.844-57.115-34.001-3.988-2.26-5.711-4.653-5.711-9.431.132-126.851.132-253.704 0-380.682 0-3.984.662-7.038 3.982-9.961 49.28-43.17 98.56-86.735 147.706-130.036 16.868-14.872 36.128-17.271 56.317-9.695 29.753 11.16 35.731 43.83 12.087 65.085-27.896 25.1-56.054 49.81-84.214 74.646-3.85 3.585-7.834 7.043-13.413 12.22h508.711c7.707 0 15.144.796 22.58 3.852 18.859 7.436 29.883 23.243 28.029 40.515z" fill="#fff"/></svg>